<?xml version="1.0" encoding="UTF-8"?>
<svg id="Layer_1" data-name="Layer 1" xmlns="http://www.w3.org/2000/svg" viewBox="0 0 163.41 142.21">
  <defs>
    <style>
      .cls-1 {
        fill: #e98a24;
      }

      .cls-2 {
        fill: #4572b8;
      }
    </style>
  </defs>
  <path class="cls-2" d="M144.35,57.24c-.95-2.31-1.42-4.78-2.17-7.15C130.22,12.28,89.88-7.85,51.83,2.87,22.9,11.02-.21,38.25,0,68.73c.33,46.03,38.04,78.79,83.82,72.76,27.84-3.67,51.99-25.2,59.2-52.21,1.92-7.19.83-10.87,6.12-16.86,3.97-4.5,9.32-7.57,14.28-10.85l-19.07-4.33ZM134.84,68.97c-1.97,6.3-11.23,7.01-14.42,1.36-2.62-4.63.47-10.64,5.61-11.47,5.63-.91,10.55,4.56,8.81,10.11Z"/>
  <path class="cls-1" d="M51.83,2.87C22.9,11.02-.21,38.25,0,68.73c28.72,22,71.54,22.45,99.9-.45,8.03-6.48,18.51-19.06,29.92-19.06h9.54c.46,0,2.14.74,2.82.87C130.22,12.28,89.88-7.85,51.83,2.87Z"/>
</svg>