<?xml version="1.0" encoding="UTF-8"?>
<svg id="Layer_1" data-name="Layer 1" xmlns="http://www.w3.org/2000/svg" viewBox="0 0 163.41 146.15">
  <defs>
    <style>
      .cls-1 {
        fill: #fff;
      }

      .cls-2 {
        fill: #e28533;
      }

      .cls-3 {
        fill: #4da3d7;
      }
    </style>
  </defs>
  <circle class="cls-1" cx="127.55" cy="68.48" r="8.09"/>
  <g>
    <path class="cls-3" d="M144.35,58.83c-.95-2.37-1.42-4.91-2.17-7.35C130.22,12.62,89.88-8.07,51.83,2.95,22.9,11.32-.21,39.31,0,70.64c.33,47.3,38.04,80.97,83.82,74.78,27.84-3.77,51.99-25.9,59.2-53.65,1.92-7.39.83-11.17,6.12-17.33,3.97-4.63,9.32-7.78,14.28-11.15l-19.07-4.45ZM127.55,76.57c-3.09,0-5.77-1.73-7.13-4.27,0,0,0,0,0,0-.02-.04-.04-.08-.06-.12-.1-.2-.2-.4-.28-.6-.08-.19-.15-.38-.21-.57-.02-.06-.04-.12-.06-.18-.07-.22-.12-.44-.17-.66,0-.04-.02-.09-.02-.13-.04-.23-.08-.46-.1-.69-.01-.1-.01-.21-.02-.32,0-.16-.03-.33-.02-.49,0-.01,0-.03,0-.04,0-1.93.68-3.7,1.81-5.09.01-.02.03-.03.04-.05,0,0,0,0,0,0,1.16-1.45,2.79-2.52,4.71-2.84.43-.07.86-.09,1.28-.09.08,0,.16-.01.25-.01,4.47,0,8.09,3.62,8.09,8.09s-3.62,8.09-8.09,8.09Z"/>
    <path class="cls-3" d="M120.36,72.17c-.11-.2-.2-.4-.28-.6.09.21.18.41.28.6Z"/>
    <path class="cls-3" d="M121.31,63.34s0,0,0,0c0,0,0,0,0,0Z"/>
    <path class="cls-3" d="M119.87,70.99c-.02-.06-.04-.12-.06-.18.02.06.04.12.06.18Z"/>
    <path class="cls-3" d="M119.64,70.15s-.02-.09-.02-.13c0,.04.01.09.02.13Z"/>
    <path class="cls-3" d="M119.51,69.34c-.01-.11-.01-.21-.02-.32,0,.11,0,.21.02.32Z"/>
    <path class="cls-3" d="M119.46,68.48s0,.03,0,.04c.01-1.86.67-3.69,1.81-5.14-1.13,1.39-1.81,3.16-1.81,5.09Z"/>
    <path class="cls-2" d="M51.83,2.95C22.9,11.32-.21,39.31,0,70.64c28.72,22.61,71.54,23.08,99.9-.46,8.03-6.66,18.51-19.59,29.92-19.59h9.54c.46,0,2.14.76,2.82.89C130.22,12.62,89.88-8.07,51.83,2.95Z"/>
  </g>
</svg>