<?xml version="1.0" encoding="UTF-8"?>
<svg id="Layer_1" xmlns="http://www.w3.org/2000/svg" version="1.1" viewBox="0 0 1231.58 431.58">
  <!-- Generator: Adobe Illustrator 29.0.1, SVG Export Plug-In . SVG Version: 2.1.0 Build 192)  -->
  <defs>
    <style>
      .st0 {
        fill: #face89;
      }

      .st1 {
        fill: #fff;
      }

      .st2 {
        fill: #f8962a;
      }

      .st3 {
        fill: #efeeee;
      }

      .st4 {
        fill: #fbac24;
      }

      .st5 {
        fill: #dcdbdb;
      }

      .st6 {
        fill: #f26a23;
      }

      .st7 {
        fill: #f78f20;
      }

      .st8 {
        fill: #f26a24;
      }
    </style>
  </defs>
  <circle class="st1" cx="215.79" cy="215.79" r="215.79"/>
  <g>
    <path class="st4" d="M423.74,193.95c-1.02-.03-1.45-.72-2.01-1.4-3.72-4.51-7.2-11.45-10.81-16.48-38.05-53.03-94.32-86.71-157.3-101.75-9.72-2.32-18.35-3.89-28.2-5.45-5.86-.94-12.93-2.61-18.65-3.19-4.99-.5-10.76-.26-15.92-.45-10.73-.41-21.13-.55-31.84,0-8.85.44-19.43,2.73-27.52,2.76-2.93.02-7-.9-9.99-.96-7.79-.15-15.73-.19-23.44.47l7.41,4.64c24.94,17.2,36.25,39.5,44.89,67.68.64,2.08.92,3.54,1.82,5.46,1.63,9.72,3.4,19.48,4.09,29.34,1.88,26.8-2.26,53.25-10.91,78.46-2.7,7.87-8.86,19.85-12.95,27.3-15.12,27.51-41.82,51.37-74.59,53.23-2.87.17-13.84.05-15.89-1.35-.45-.31-.21-.87-.28-.94-2.78-3.12-4.85-6.99-6.9-10.61-19.15-33.77-27.7-69.73-26.76-108.56,1.16-47.69,17.14-88.34,47.31-124.64,16.23-19.53,33.68-35.21,55.64-48.29C162.18,8.7,226.9.57,283.64,20.19c1.98.05,6.62,2.07,8.75,2.85,42.96,15.81,81.32,47.59,104.42,87.08,2.48,4.24,8.74,18.72,11.01,21.06,1.11,4.01,3.12,7.7,4.55,11.59,6.02,16.42,9.69,33.76,11.37,51.18Z"/>
    <path class="st3" d="M336.85,290.84c-8.06,24.89-20.68,46.2-38.66,65.05-22.13,23.2-49.79,40.79-81.13,48.73-4.48,1.14-9.16,1.62-13.48,2.67.74-.35,1.77-1.52,2.27-1.82,3.87-2.33,7.42-4.24,10.46-7.73,4.23-3.29,8.63-7.59,12.29-11.59,7.19-7.86,14.5-17.45,19.09-27.08,9.97-16.47,16.5-35.36,18.65-54.58,19.2-31.85,23.23-70.56,14.1-106.44-.85-3.32-2.34-6.55-2.73-10.01,16.48,3.28,31.21,9.01,45.45,18,4.67,2.95,8.88,6.55,13.69,9.29.26.85.76,1.74.91,2.27,7.89,28.2,4.21,45.64-.91,73.23Z"/>
    <path class="st0" d="M234.96,116.63c6.59,2.07,15.16,6.39,21.38,7.73-.28,1.24.67.84,1.33,1.14,21.33,9.84,41.92,27.82,56.43,46.16,10.11,12.78,17.99,28.15,22.74,43.67-4.8-2.73-9.01-6.33-13.68-9.29-14.24-9-28.97-14.72-45.45-18.01-.44-.09-1.39-.84-1.82-.91,1.44.18.81-.43.61-1.29-5.55-23.82-26.53-52.71-43.82-69.67.78.05,1.54.22,2.27.45ZM255.21,124.36v.45c.3-.15.3-.3,0-.45Z"/>
    <path class="st2" d="M275.91,187.13c-26.46-4.4-60.06,1.58-82.79,15.46-20.04,12.25-36.04,30.32-47.76,50.49,8.65-25.21,12.79-51.66,10.91-78.45-.69-9.87-2.46-19.63-4.09-29.35-.9-1.92-1.18-3.38-1.82-5.46-8.64-28.18-19.95-50.48-44.88-67.69l-7.42-4.62c7.72-.68,15.65-.63,23.44-.48,2.99.05,7.06.98,9.99.96,8.09-.04,18.67-2.32,27.52-2.76-.24,1.66,2.85,1.91,3.11,2.33.77,1.22-2.05,5.17,1.02,6.95,1.16.68,2.43.51,3.55,1,8.98,3.88,17.96,7.83,26.56,12.1,1.57.78,3.34,1.31,4.87,2.18,1.43,1.59,6.71,4,8.86,5.47,9.02,6.18,17.91,13.26,25.71,20.91,17.29,16.96,38.28,45.85,43.82,69.67.21.86.84,1.47-.6,1.29Z"/>
    <path class="st6" d="M392.8,325.87c-.93.58-.99.76-.91-.45,18.68-45.9,8.87-102.25-21.64-140.52-30.42-38.14-65.54-51.5-112.09-60.53-.54-.1-1.3.11-1.82,0-6.22-1.34-14.79-5.66-21.38-7.73-.74-.23-1.5-.41-2.27-.45-7.81-7.66-16.69-14.72-25.71-20.91-2.15-1.47-7.43-3.88-8.86-5.47-1.54-.87-3.31-1.41-4.87-2.18-8.6-4.28-17.59-8.22-26.56-12.1-1.12-.49-2.39-.32-3.55-1-3.07-1.78-.25-5.74-1.01-6.95-.27-.42-3.36-.67-3.12-2.34,10.71-.54,21.11-.4,31.84,0,5.16.2,10.93-.05,15.92.45,5.72.58,12.79,2.25,18.65,3.18,9.85,1.56,18.49,3.14,28.2,5.46,62.98,15.04,119.26,48.72,157.3,101.75,3.61,5.03,7.1,11.97,10.81,16.48.57.69.99,1.38,2.01,1.41.03.3-.03.61,0,.91,0,.02-.02.18,0,.45,3.88,47.66-5.61,90.2-30.93,130.55Z"/>
    <path class="st7" d="M389.62,330.41c-.4,2.65-7.78,12.27-9.83,14.96-14.91,19.64-32.31,35.33-52.95,48.72-9.07,5.88-18.09,10.72-28.2,15.01-3.93,1.66-7.78,3.59-11.83,5-8.78,3.07-17.89,4.86-26.84,7.28-.42.11-1.08-.18-1.36.45-.3.01-.61-.02-.91,0-5.25.43-10.45,1.72-15.7,2.27-29.36,3.07-58.95.16-87.1-8.18-15.01-4.45-30.58-10.73-44.12-18.65-13.13-7.67-30.16-20.84-40.94-31.39-5.04-4.93-10.01-11.39-14.56-16.83-.05-.05-.59.08-.76-.14-3.97-4.79-7.56-9.95-11.05-15.11,3.42,2.12,6.7,4.52,9.97,6.86.66.48,1.11,1.36,1.4,1.56,2.69,1.88,6.27,4.19,9.1,5.91,22.05,13.45,47.87,22.35,73.69,24.11,3.53-.52,7.09.15,10.71.02,48.41-1.63,92.95-26.21,118.01-67.8-2.15,19.22-8.68,38.12-18.65,54.58-4.59,9.63-11.9,19.22-19.09,27.08-3.67,4-8.07,8.3-12.29,11.59-3.04,3.49-6.6,5.4-10.46,7.73-.5.3-1.53,1.46-2.27,1.82,4.32-1.05,9-1.53,13.48-2.67,31.34-7.94,59-25.53,81.13-48.73,17.98-18.85,30.6-40.16,38.66-65.05,5.12-27.59,8.8-45.03.91-73.23-.25-2.39,2.67,1,3.64,1.82,12.28,10.43,22.09,22.33,30.02,36.39-1.06.84-.43,2.38.91,2.27.34.63.59,1.21.91,1.82l.45.45c.62,1.22.91,2.22,1.36,3.18.74,1.56,2,3.28,2.73,5,6.38,15.14,10.92,33.11,11.37,49.58.07,2.49-.43,5.52.45,7.73,0,.45.03.91,0,1.36-.06,1.02.14,2.23,0,3.18Z"/>
    <path class="st2" d="M391.89,325.41c-.08,1.21-.02,1.04.91.45-.96,1.53-1.5,3.6-3.18,4.55.14-.95-.06-2.16,0-3.18l.46.91h.44c-.29-1.19,1.22-2.37,1.37-2.73Z"/>
    <path class="st7" d="M423.73,195.32c-.02-.27,0-.43,0-.45v.45Z"/>
    <path class="st3" d="M391.89,325.41c-.15.36-1.66,1.53-1.37,2.72h-.45l-.46-.91c.03-.45,0-.91,0-1.36,0-.1.65-.66.48-1.1l-.93-6.63c-.45-16.47-4.99-34.44-11.37-49.58-.73-1.72-1.99-3.44-2.73-5-.45-.96-.75-1.96-1.36-3.18-.1-.18-.38-.31-.45-.45-.32-.61-.57-1.19-.91-1.82-.31-.58-.47-1.5-.91-2.27-7.93-14.06-17.74-25.96-30.02-36.39-.97-.82-3.89-4.21-3.64-1.82-.15-.53-.65-1.42-.91-2.27-4.75-15.52-12.63-30.89-22.74-43.67-14.51-18.34-35.1-36.33-56.43-46.16-.66-.31-1.61.1-1.33-1.15.52.11,1.28-.1,1.82,0,46.55,9.03,81.67,22.39,112.09,60.53,30.51,38.26,40.32,94.62,21.64,140.52Z"/>
    <path class="st3" d="M255.21,124.36c.3.15.3.3,0,.45v-.45Z"/>
    <path class="st5" d="M259.98,421.39c-.22.6-.87.43-1.36.45.28-.63.94-.34,1.36-.45Z"/>
    <path class="st2" d="M389.62,325.87c-.89-2.21-.39-5.24-.45-7.73l.93,6.63c.17.44-.48,1-.48,1.1Z"/>
    <path class="st7" d="M372.33,258.09c-1.34.1-1.97-1.44-.91-2.27.44.78.6,1.7.91,2.27Z"/>
    <path class="st7" d="M373.7,260.37l-.45-.45c.07.14.36.27.45.45Z"/>
  </g>
  <g>
    <path class="st8" d="M555.43,111.46l-13.61,14.66v36.3h-26.18V35.37h26.18v57.59l11.52-15.79,32.37-41.8h32.2l-45.11,56.46,46.42,70.59h-31.15l-32.64-50.96Z"/>
    <path class="st8" d="M682.13,162.42c-1.17-2.27-2.01-5.09-2.53-8.46-6.11,6.81-14.05,10.21-23.82,10.21-9.25,0-16.92-2.67-22.99-8.03-6.08-5.35-9.12-12.1-9.12-20.24,0-10,3.71-17.68,11.13-23.04,7.42-5.35,18.13-8.06,32.16-8.12h11.61v-5.41c0-4.36-1.12-7.85-3.36-10.47-2.24-2.62-5.77-3.93-10.6-3.93-4.25,0-7.58,1.02-9.99,3.05-2.41,2.04-3.62,4.83-3.62,8.38h-25.22c0-5.47,1.69-10.53,5.06-15.18,3.37-4.65,8.14-8.3,14.31-10.95,6.17-2.65,13.09-3.97,20.77-3.97,11.63,0,20.87,2.92,27.71,8.77,6.83,5.85,10.25,14.06,10.25,24.65v40.93c.06,8.96,1.31,15.74,3.75,20.33v1.48h-25.48ZM661.27,144.88c3.72,0,7.16-.83,10.3-2.49,3.14-1.66,5.47-3.88,6.98-6.68v-16.23h-9.42c-12.62,0-19.34,4.36-20.16,13.09l-.09,1.48c0,3.14,1.1,5.73,3.32,7.77,2.21,2.04,5.24,3.05,9.08,3.05Z"/>
    <path class="st8" d="M752.2,142.09h46.16v20.33h-78.36v-15.36l44.42-58.73h-43.11v-20.33h75.65v14.86l-44.76,59.23Z"/>
    <path class="st8" d="M808.83,114.34c0-9.37,1.8-17.71,5.41-25.04,3.61-7.33,8.8-13,15.58-17.02,6.78-4.01,14.64-6.02,23.6-6.02,12.74,0,23.14,3.9,31.2,11.69,8.06,7.8,12.55,18.38,13.48,31.76l.17,6.46c0,14.49-4.04,26.11-12.13,34.86-8.09,8.76-18.94,13.13-32.55,13.13s-24.48-4.36-32.59-13.09-12.17-20.59-12.17-35.6v-1.13ZM834.05,116.13c0,8.97,1.69,15.83,5.06,20.58,3.37,4.75,8.2,7.12,14.48,7.12s10.88-2.35,14.31-7.04c3.43-4.69,5.15-12.19,5.15-22.5,0-8.8-1.72-15.61-5.15-20.45-3.43-4.83-8.26-7.25-14.49-7.25s-10.94,2.4-14.31,7.21c-3.38,4.81-5.06,12.25-5.06,22.33Z"/>
    <path class="st8" d="M909.88,114.34c0-9.37,1.8-17.71,5.41-25.04,3.61-7.33,8.8-13,15.58-17.02,6.78-4.01,14.64-6.02,23.6-6.02,12.74,0,23.14,3.9,31.2,11.69,8.06,7.8,12.55,18.38,13.48,31.76l.17,6.46c0,14.49-4.04,26.11-12.13,34.86-8.09,8.76-18.94,13.13-32.55,13.13s-24.48-4.36-32.59-13.09-12.17-20.59-12.17-35.6v-1.13ZM935.1,116.13c0,8.97,1.69,15.83,5.06,20.58,3.37,4.75,8.2,7.12,14.48,7.12s10.88-2.35,14.31-7.04c3.43-4.69,5.15-12.19,5.15-22.5,0-8.8-1.72-15.61-5.15-20.45-3.43-4.83-8.26-7.25-14.49-7.25s-10.94,2.4-14.31,7.21c-3.38,4.81-5.06,12.25-5.06,22.33Z"/>
    <path class="st8" d="M615.37,334.55c-.99,13.67-6.04,24.43-15.14,32.29-9.11,7.85-21.1,11.78-36,11.78-16.29,0-29.1-5.48-38.44-16.45-9.34-10.96-14-26.02-14-45.16v-7.77c0-12.22,2.15-22.98,6.46-32.29,4.3-9.31,10.46-16.45,18.46-21.42,8-4.97,17.29-7.46,27.88-7.46,14.66,0,26.47,3.93,35.43,11.78,8.96,7.85,14.14,18.88,15.53,33.07h-26.18c-.64-8.2-2.92-14.15-6.85-17.84-3.93-3.69-9.9-5.54-17.93-5.54-8.73,0-15.26,3.13-19.59,9.38-4.33,6.25-6.56,15.96-6.68,29.1v9.6c0,13.73,2.08,23.76,6.24,30.11s10.72,9.51,19.68,9.51c8.08,0,14.12-1.85,18.11-5.54,3.98-3.69,6.27-9.41,6.85-17.15h26.18Z"/>
    <path class="st8" d="M657.52,376.87h-25.31v-134.03h25.31v134.03Z"/>
    <path class="st8" d="M733,376.87c-1.17-2.27-2.01-5.09-2.53-8.46-6.11,6.81-14.05,10.21-23.82,10.21-9.25,0-16.92-2.67-22.99-8.03-6.08-5.35-9.12-12.1-9.12-20.24,0-10,3.71-17.68,11.13-23.04,7.42-5.35,18.13-8.06,32.16-8.12h11.61v-5.41c0-4.36-1.12-7.85-3.36-10.47-2.24-2.62-5.77-3.93-10.6-3.93-4.25,0-7.58,1.02-9.99,3.05-2.41,2.04-3.62,4.83-3.62,8.38h-25.22c0-5.47,1.69-10.53,5.06-15.18,3.37-4.65,8.14-8.3,14.31-10.95,6.17-2.65,13.09-3.97,20.77-3.97,11.63,0,20.87,2.92,27.71,8.77,6.83,5.85,10.25,14.06,10.25,24.65v40.92c.06,8.96,1.31,15.74,3.75,20.33v1.48h-25.48ZM712.15,359.33c3.72,0,7.16-.83,10.3-2.49s5.47-3.88,6.98-6.68v-16.23h-9.42c-12.62,0-19.34,4.36-20.16,13.09l-.09,1.48c0,3.14,1.1,5.73,3.32,7.77,2.21,2.04,5.24,3.05,9.08,3.05Z"/>
    <path class="st8" d="M825.23,350.78c0-3.08-1.53-5.51-4.58-7.29-3.05-1.77-7.96-3.36-14.7-4.76-22.46-4.71-33.68-14.25-33.68-28.62,0-8.38,3.48-15.37,10.43-20.99,6.95-5.61,16.04-8.42,27.27-8.42,11.98,0,21.57,2.82,28.75,8.46,7.18,5.64,10.78,12.97,10.78,21.99h-25.22c0-3.61-1.16-6.59-3.49-8.94-2.33-2.36-5.96-3.53-10.91-3.53-4.25,0-7.53.96-9.86,2.88-2.33,1.92-3.49,4.36-3.49,7.33,0,2.79,1.32,5.05,3.97,6.76,2.65,1.72,7.11,3.2,13.39,4.45,6.28,1.25,11.58,2.66,15.88,4.23,13.32,4.89,19.98,13.35,19.98,25.39,0,8.61-3.7,15.58-11.08,20.9-7.39,5.32-16.93,7.98-28.62,7.98-7.91,0-14.94-1.41-21.07-4.23-6.14-2.82-10.95-6.69-14.44-11.61-3.49-4.92-5.24-10.22-5.24-15.92h23.91c.23,4.48,1.89,7.91,4.97,10.3,3.08,2.39,7.21,3.58,12.39,3.58,4.83,0,8.48-.92,10.95-2.75,2.47-1.83,3.71-4.23,3.71-7.2Z"/>
    <path class="st8" d="M917.12,350.78c0-3.08-1.53-5.51-4.58-7.29-3.05-1.77-7.96-3.36-14.7-4.76-22.46-4.71-33.68-14.25-33.68-28.62,0-8.38,3.48-15.37,10.43-20.99,6.95-5.61,16.04-8.42,27.27-8.42,11.98,0,21.57,2.82,28.75,8.46,7.18,5.64,10.78,12.97,10.78,21.99h-25.22c0-3.61-1.16-6.59-3.49-8.94-2.33-2.36-5.96-3.53-10.91-3.53-4.25,0-7.53.96-9.86,2.88-2.33,1.92-3.49,4.36-3.49,7.33,0,2.79,1.32,5.05,3.97,6.76,2.65,1.72,7.11,3.2,13.39,4.45,6.28,1.25,11.58,2.66,15.88,4.23,13.32,4.89,19.98,13.35,19.98,25.39,0,8.61-3.7,15.58-11.08,20.9-7.39,5.32-16.93,7.98-28.62,7.98-7.91,0-14.94-1.41-21.07-4.23-6.14-2.82-10.95-6.69-14.44-11.61-3.49-4.92-5.24-10.22-5.24-15.92h23.91c.23,4.48,1.89,7.91,4.97,10.3,3.08,2.39,7.21,3.58,12.39,3.58,4.83,0,8.48-.92,10.95-2.75,2.47-1.83,3.71-4.23,3.71-7.2Z"/>
    <path class="st8" d="M957.7,258.02c0-3.78,1.26-6.89,3.8-9.34,2.53-2.44,5.98-3.67,10.34-3.67s7.74,1.22,10.3,3.67c2.56,2.44,3.84,5.56,3.84,9.34s-1.3,6.98-3.88,9.42c-2.59,2.44-6.01,3.67-10.25,3.67s-7.67-1.22-10.25-3.67c-2.59-2.44-3.88-5.58-3.88-9.42ZM984.48,376.87h-25.31v-94.42h25.31v94.42Z"/>
    <path class="st8" d="M1044.52,358.28c4.65,0,8.43-1.28,11.34-3.84,2.91-2.56,4.42-5.96,4.54-10.21h23.65c-.06,6.4-1.8,12.26-5.24,17.58-3.43,5.32-8.13,9.45-14.09,12.39-5.96,2.94-12.55,4.41-19.76,4.41-13.5,0-24.14-4.29-31.94-12.87-7.8-8.58-11.69-20.43-11.69-35.56v-1.66c0-14.54,3.87-26.15,11.61-34.82,7.74-8.67,18.35-13,31.85-13,11.81,0,21.28,3.36,28.4,10.08,7.12,6.72,10.75,15.66,10.86,26.83h-23.65c-.12-4.91-1.63-8.9-4.54-11.97-2.91-3.07-6.75-4.61-11.52-4.61-5.88,0-10.31,2.14-13.31,6.42-3,4.28-4.49,11.23-4.49,20.84v2.62c0,9.73,1.48,16.72,4.45,20.98,2.97,4.25,7.47,6.38,13.53,6.38Z"/>
  </g>
</svg>