<?xml version="1.0" encoding="UTF-8"?>
<svg id="Layer_1" data-name="Layer 1" xmlns="http://www.w3.org/2000/svg" viewBox="0 0 1690.39 193.88">
  <defs>
    <style>
      .cls-1 {
        fill: #f47721;
      }

      .cls-2 {
        fill: #e98a24;
      }

      .cls-3 {
        fill: #4572b8;
      }
    </style>
  </defs>
  <g>
    <path class="cls-3" d="M737.01,108.82c-.95-2.31-1.42-4.78-2.17-7.15-11.96-37.81-52.3-57.94-90.35-47.22-28.93,8.15-52.04,35.38-51.83,65.86.33,46.03,38.04,78.79,83.82,72.76,27.84-3.67,51.99-25.2,59.2-52.21,1.92-7.19.83-10.87,6.12-16.86,3.97-4.5,9.32-7.57,14.28-10.85l-19.07-4.33ZM727.5,120.55c-1.97,6.3-11.23,7.01-14.42,1.36-2.62-4.63.47-10.64,5.61-11.47,5.63-.91,10.55,4.56,8.81,10.11Z"/>
    <path class="cls-2" d="M644.49,54.45c-28.93,8.15-52.04,35.38-51.83,65.86,28.72,22,71.54,22.45,99.9-.45,8.03-6.48,18.51-19.06,29.92-19.06h9.54c.46,0,2.14.74,2.82.87-11.96-37.81-52.3-57.94-90.35-47.22Z"/>
  </g>
  <g>
    <path class="cls-1" d="M815.85,96.94c0-11.35,2.05-22.57,6.16-33.67,4.1-11.09,10.09-21,17.95-29.74,7.86-8.73,17.46-15.81,28.82-21.22,11.35-5.41,24.28-8.12,38.78-8.12,17.12,0,31.92,3.76,44.41,11.27,12.49,7.51,21.79,17.29,27.9,29.34l-27.77,19.13c-2.45-5.24-5.42-9.65-8.91-13.23-3.5-3.58-7.25-6.42-11.27-8.52-4.02-2.1-8.21-3.62-12.58-4.58-4.37-.96-8.65-1.44-12.84-1.44-9.08,0-16.99,1.83-23.71,5.5-6.73,3.67-12.31,8.43-16.77,14.28-4.45,5.85-7.82,12.49-10.09,19.91-2.27,7.43-3.41,14.8-3.41,22.14,0,8.21,1.31,16.11,3.93,23.71,2.62,7.6,6.33,14.28,11.13,20.04,4.8,5.76,10.57,10.39,17.29,13.89,6.72,3.5,14.1,5.24,22.14,5.24,4.19,0,8.56-.52,13.1-1.57,4.54-1.05,8.86-2.71,12.97-4.98,4.1-2.27,7.9-5.2,11.4-8.78,3.49-3.58,6.29-7.9,8.38-12.97l29.61,17.03c-2.97,6.99-7.21,13.15-12.71,18.47-5.5,5.33-11.7,9.82-18.6,13.49-6.9,3.67-14.28,6.46-22.14,8.38-7.86,1.92-15.55,2.88-23.06,2.88-13.28,0-25.41-2.79-36.42-8.38-11-5.59-20.48-12.88-28.43-21.88-7.95-8.99-14.15-19.21-18.6-30.65-4.45-11.44-6.68-23.1-6.68-34.98Z"/>
    <path class="cls-1" d="M1003.18,0h35.11v147.24c0,5.07,1.22,9,3.67,11.79,2.45,2.8,5.94,4.19,10.48,4.19,2.1,0,4.41-.35,6.94-1.05,2.53-.7,4.93-1.57,7.21-2.62l4.71,26.72c-4.71,2.27-10.22,4.02-16.51,5.24-6.29,1.22-11.96,1.83-17.03,1.83-11,0-19.52-2.92-25.54-8.78-6.03-5.85-9.04-14.19-9.04-25.02V0Z"/>
    <path class="cls-1" d="M1123.96,193.88c-6.64,0-12.84-1.09-18.6-3.28-5.76-2.18-10.74-5.24-14.93-9.17-4.19-3.93-7.47-8.51-9.83-13.75s-3.54-11-3.54-17.29,1.44-12.44,4.32-17.95,6.9-10.17,12.05-14.02c5.15-3.84,11.31-6.85,18.47-9.04,7.16-2.18,15.02-3.27,23.58-3.27,6.11,0,12.09.52,17.95,1.57,5.85,1.05,11.04,2.53,15.59,4.45v-7.86c0-9.08-2.58-16.07-7.73-20.96-5.15-4.89-12.8-7.34-22.92-7.34-7.34,0-14.5,1.31-21.48,3.93-6.99,2.62-14.15,6.46-21.48,11.53l-10.74-22.27c17.64-11.7,36.68-17.55,57.12-17.55s35.06,4.85,45.98,14.54c10.91,9.69,16.38,23.71,16.38,42.05v42.71c0,3.67.66,6.29,1.96,7.86,1.31,1.57,3.45,2.45,6.42,2.62v29.87c-5.94,1.22-11.09,1.83-15.46,1.83-6.64,0-11.75-1.49-15.33-4.45-3.58-2.97-5.81-6.9-6.68-11.79l-.79-7.6c-6.12,8.04-13.54,14.15-22.27,18.34-8.74,4.19-18.08,6.29-28.03,6.29ZM1133.92,168.2c5.94,0,11.57-1.05,16.9-3.14,5.33-2.1,9.47-4.89,12.45-8.38,3.84-2.97,5.76-6.29,5.76-9.96v-15.72c-4.19-1.57-8.74-2.84-13.62-3.8-4.89-.96-9.61-1.44-14.15-1.44-9.08,0-16.51,2.06-22.27,6.16-5.76,4.11-8.65,9.3-8.65,15.59,0,5.94,2.27,10.87,6.81,14.8,4.54,3.93,10.13,5.9,16.77,5.9Z"/>
    <path class="cls-1" d="M1288.76,193.88c-11.53,0-22.79-1.83-33.8-5.5-11-3.67-20.44-8.91-28.3-15.72l13.1-22.01c8.38,5.94,16.55,10.44,24.5,13.49,7.95,3.06,15.85,4.58,23.71,4.58,6.98,0,12.49-1.31,16.51-3.93,4.02-2.62,6.03-6.37,6.03-11.27s-2.36-8.47-7.07-10.74c-4.72-2.27-12.4-4.89-23.06-7.86-8.91-2.44-16.51-4.8-22.79-7.07-6.29-2.27-11.36-4.85-15.2-7.73-3.84-2.88-6.64-6.2-8.38-9.96-1.75-3.75-2.62-8.25-2.62-13.49,0-6.98,1.35-13.27,4.06-18.86,2.71-5.59,6.5-10.35,11.4-14.28,4.89-3.93,10.61-6.94,17.16-9.04,6.55-2.1,13.67-3.14,21.35-3.14,10.3,0,19.95,1.49,28.95,4.45,8.99,2.97,17.25,7.77,24.76,14.41l-14.15,21.22c-6.99-5.24-13.75-9.08-20.3-11.53-6.55-2.44-13.06-3.67-19.52-3.67-5.94,0-10.92,1.22-14.93,3.67-4.02,2.45-6.03,6.38-6.03,11.79,0,2.45.48,4.45,1.44,6.03.96,1.57,2.49,2.97,4.58,4.19,2.1,1.22,4.85,2.4,8.25,3.54,3.41,1.14,7.64,2.32,12.71,3.54,9.43,2.45,17.51,4.89,24.24,7.34,6.72,2.45,12.22,5.24,16.51,8.38,4.28,3.14,7.42,6.77,9.43,10.87,2.01,4.11,3.01,9.04,3.01,14.8,0,13.45-4.98,24.06-14.93,31.83-9.96,7.77-23.49,11.66-40.61,11.66Z"/>
    <path class="cls-1" d="M1418.97,193.88c-11.53,0-22.79-1.83-33.8-5.5-11-3.67-20.44-8.91-28.3-15.72l13.1-22.01c8.38,5.94,16.55,10.44,24.5,13.49,7.95,3.06,15.85,4.58,23.71,4.58,6.98,0,12.49-1.31,16.51-3.93,4.02-2.62,6.03-6.37,6.03-11.27s-2.36-8.47-7.07-10.74c-4.72-2.27-12.4-4.89-23.06-7.86-8.91-2.44-16.51-4.8-22.79-7.07-6.29-2.27-11.36-4.85-15.2-7.73-3.84-2.88-6.64-6.2-8.38-9.96-1.75-3.75-2.62-8.25-2.62-13.49,0-6.98,1.35-13.27,4.06-18.86,2.71-5.59,6.5-10.35,11.4-14.28,4.89-3.93,10.61-6.94,17.16-9.04,6.55-2.1,13.67-3.14,21.35-3.14,10.3,0,19.95,1.49,28.95,4.45,8.99,2.97,17.25,7.77,24.76,14.41l-14.15,21.22c-6.99-5.24-13.75-9.08-20.3-11.53-6.55-2.44-13.06-3.67-19.52-3.67-5.94,0-10.92,1.22-14.93,3.67-4.02,2.45-6.03,6.38-6.03,11.79,0,2.45.48,4.45,1.44,6.03.96,1.57,2.49,2.97,4.58,4.19,2.1,1.22,4.85,2.4,8.25,3.54,3.41,1.14,7.64,2.32,12.71,3.54,9.43,2.45,17.51,4.89,24.24,7.34,6.72,2.45,12.22,5.24,16.51,8.38,4.28,3.14,7.42,6.77,9.43,10.87,2.01,4.11,3.01,9.04,3.01,14.8,0,13.45-4.98,24.06-14.93,31.83-9.96,7.77-23.49,11.66-40.61,11.66Z"/>
    <path class="cls-1" d="M1497.3,34.85V0h35.11v34.85h-35.11ZM1497.3,191.26V53.97h35.11v137.29h-35.11Z"/>
    <path class="cls-1" d="M1555.46,122.62c0-9.6,1.66-18.69,4.98-27.25,3.32-8.56,8.12-16.07,14.41-22.53,6.29-6.46,13.89-11.61,22.79-15.46,8.91-3.84,18.95-5.76,30.13-5.76,15.02,0,27.81,3.23,38.38,9.69,10.57,6.46,18.47,14.93,23.71,25.41l-34.32,10.48c-2.97-5.06-6.9-8.95-11.79-11.66-4.89-2.71-10.31-4.06-16.24-4.06-5.07,0-9.78,1.01-14.15,3.01-4.37,2.01-8.17,4.81-11.4,8.38-3.23,3.58-5.76,7.91-7.6,12.97-1.83,5.07-2.75,10.66-2.75,16.77s.96,11.7,2.88,16.77c1.92,5.07,4.5,9.43,7.73,13.1,3.23,3.67,7.03,6.51,11.4,8.51,4.36,2.01,8.99,3.01,13.89,3.01,6.29,0,12.09-1.57,17.42-4.72,5.33-3.14,9.04-6.98,11.14-11.53l34.32,10.48c-4.72,10.48-12.49,19.04-23.32,25.68-10.83,6.64-23.84,9.96-39.04,9.96-11.18,0-21.22-1.92-30.13-5.76-8.91-3.84-16.51-9.04-22.79-15.59-6.29-6.55-11.14-14.15-14.54-22.79-3.41-8.65-5.11-17.69-5.11-27.12Z"/>
  </g>
  <g>
    <path class="cls-3" d="M0,191.15V5.39h36.16v88.29L114.23,5.13h39.82l-71.26,82.53,75.72,103.49h-40.61l-57.9-80.43-23.84,24.89v55.54H0Z"/>
    <path class="cls-3" d="M209.34,193.77c-6.64,0-12.84-1.09-18.6-3.28-5.76-2.18-10.74-5.24-14.93-9.17-4.19-3.93-7.47-8.51-9.83-13.75-2.36-5.24-3.54-11-3.54-17.29s1.44-12.44,4.32-17.95,6.9-10.17,12.05-14.02c5.15-3.84,11.31-6.85,18.47-9.04,7.16-2.18,15.02-3.27,23.58-3.27,6.11,0,12.09.52,17.95,1.57,5.85,1.05,11.04,2.53,15.59,4.45v-7.86c0-9.08-2.58-16.07-7.73-20.96-5.15-4.89-12.8-7.34-22.92-7.34-7.34,0-14.5,1.31-21.48,3.93-6.99,2.62-14.15,6.46-21.48,11.53l-10.74-22.27c17.64-11.7,36.68-17.55,57.12-17.55s35.06,4.85,45.98,14.54c10.91,9.69,16.38,23.71,16.38,42.05v42.71c0,3.67.65,6.29,1.96,7.86,1.31,1.57,3.45,2.45,6.42,2.62v29.87c-5.94,1.22-11.09,1.83-15.46,1.83-6.64,0-11.75-1.49-15.33-4.45-3.58-2.97-5.81-6.9-6.68-11.79l-.79-7.6c-6.12,8.04-13.54,14.15-22.27,18.34-8.74,4.19-18.08,6.29-28.03,6.29ZM219.29,168.09c5.94,0,11.57-1.05,16.9-3.14,5.33-2.1,9.47-4.89,12.45-8.38,3.84-2.97,5.76-6.29,5.76-9.96v-15.72c-4.19-1.57-8.73-2.84-13.62-3.8-4.89-.96-9.61-1.44-14.15-1.44-9.08,0-16.51,2.06-22.27,6.16-5.76,4.11-8.65,9.3-8.65,15.59,0,5.94,2.27,10.87,6.81,14.8,4.54,3.93,10.13,5.9,16.77,5.9Z"/>
    <path class="cls-3" d="M313.08,169.66l76.5-91.18h-73.36v-24.63h110.3v21.48l-75.98,91.18h77.29v24.63h-114.76v-21.48Z"/>
    <path class="cls-3" d="M511.16,193.77c-11.18,0-21.22-1.92-30.13-5.76-8.91-3.84-16.46-9.04-22.66-15.59-6.2-6.55-10.96-14.1-14.28-22.66-3.32-8.56-4.98-17.55-4.98-26.99s1.66-18.69,4.98-27.25c3.32-8.56,8.08-16.11,14.28-22.66,6.2-6.55,13.75-11.75,22.66-15.59,8.91-3.84,18.95-5.76,30.13-5.76s21.18,1.92,30,5.76c8.82,3.84,16.33,9.04,22.53,15.59,6.2,6.55,10.96,14.11,14.28,22.66,3.32,8.56,4.98,17.64,4.98,27.25s-1.66,18.43-4.98,26.99c-3.32,8.56-8.04,16.11-14.15,22.66-6.12,6.55-13.62,11.75-22.53,15.59-8.91,3.84-18.95,5.76-30.13,5.76ZM475.26,122.76c0,6.12.92,11.66,2.75,16.64,1.83,4.98,4.36,9.3,7.6,12.97,3.23,3.67,7.03,6.51,11.4,8.51,4.36,2.01,9.08,3.01,14.15,3.01s9.78-1,14.15-3.01c4.36-2.01,8.16-4.85,11.4-8.51,3.23-3.67,5.76-8.03,7.6-13.1,1.83-5.06,2.75-10.65,2.75-16.77s-.92-11.44-2.75-16.51c-1.83-5.06-4.37-9.43-7.6-13.1-3.23-3.67-7.03-6.5-11.4-8.51-4.37-2.01-9.08-3.01-14.15-3.01s-9.78,1.05-14.15,3.14c-4.37,2.1-8.17,4.98-11.4,8.65-3.23,3.67-5.76,8.04-7.6,13.1-1.83,5.07-2.75,10.57-2.75,16.51Z"/>
  </g>
</svg>