<?xml version="1.0" encoding="UTF-8"?>
<svg id="Layer_1" xmlns="http://www.w3.org/2000/svg" version="1.1" viewBox="0 0 416.65 415.76">
  <!-- Generator: Adobe Illustrator 29.0.1, SVG Export Plug-In . SVG Version: 2.1.0 Build 192)  -->
  <defs>
    <style>
      .st0 {
        fill: #face89;
      }

      .st1 {
        fill: #f8962a;
      }

      .st2 {
        fill: #efeeee;
      }

      .st3 {
        fill: #fbac24;
      }

      .st4 {
        fill: #dcdbdb;
      }

      .st5 {
        fill: #f26a23;
      }

      .st6 {
        fill: #f78f20;
      }
    </style>
  </defs>
  <path class="st3" d="M415.82,184.41c-1.02-.03-1.45-.72-2.01-1.4-3.72-4.51-7.2-11.45-10.81-16.48-38.05-53.03-94.32-86.71-157.3-101.75-9.72-2.32-18.35-3.89-28.2-5.45-5.86-.94-12.93-2.61-18.65-3.19-4.99-.5-10.76-.26-15.92-.45-10.73-.41-21.13-.55-31.84,0-8.85.44-19.43,2.73-27.52,2.76-2.93.02-7-.9-9.99-.96-7.79-.15-15.73-.19-23.44.47l7.41,4.64c24.94,17.2,36.25,39.5,44.89,67.68.64,2.08.92,3.54,1.82,5.46,1.63,9.72,3.4,19.48,4.09,29.34,1.88,26.8-2.26,53.25-10.91,78.46-2.7,7.87-8.86,19.85-12.95,27.3-15.12,27.51-41.82,51.37-74.59,53.23-2.87.17-13.84.05-15.89-1.35-.45-.31-.21-.87-.28-.94-2.78-3.12-4.85-6.99-6.9-10.61C7.68,277.4-.87,241.44.07,202.61c1.16-47.69,17.14-88.34,47.31-124.64,16.23-19.53,33.68-35.21,55.64-48.29C154.26-.84,218.98-8.97,275.72,10.65c1.98.05,6.62,2.07,8.75,2.85,42.96,15.81,81.32,47.59,104.42,87.08,2.48,4.24,8.74,18.72,11.01,21.06,1.11,4.01,3.12,7.7,4.55,11.59,6.02,16.42,9.69,33.76,11.37,51.18Z"/>
  <path class="st2" d="M328.94,281.3c-8.06,24.89-20.68,46.2-38.66,65.05-22.13,23.2-49.79,40.79-81.13,48.73-4.48,1.14-9.16,1.62-13.48,2.67.74-.35,1.77-1.52,2.27-1.82,3.87-2.33,7.42-4.24,10.46-7.73,4.23-3.29,8.63-7.59,12.29-11.59,7.19-7.86,14.5-17.45,19.09-27.08,9.97-16.47,16.5-35.36,18.65-54.58,19.2-31.85,23.23-70.56,14.1-106.44-.85-3.32-2.34-6.55-2.73-10.01,16.48,3.28,31.21,9.01,45.45,18,4.67,2.95,8.88,6.55,13.69,9.29.26.85.76,1.74.91,2.27,7.89,28.2,4.21,45.64-.91,73.23Z"/>
  <path class="st0" d="M227.05,107.09c6.59,2.07,15.16,6.39,21.38,7.73-.28,1.24.67.84,1.33,1.14,21.33,9.84,41.92,27.82,56.43,46.16,10.11,12.78,17.99,28.15,22.74,43.67-4.8-2.73-9.01-6.33-13.68-9.29-14.24-9-28.97-14.72-45.45-18.01-.44-.09-1.39-.84-1.82-.91,1.44.18.81-.43.61-1.29-5.55-23.82-26.53-52.71-43.82-69.67.78.05,1.54.22,2.27.45ZM247.29,114.82v.45c.3-.15.3-.3,0-.45Z"/>
  <path class="st1" d="M267.99,177.59c-26.46-4.4-60.06,1.58-82.79,15.46-20.04,12.25-36.04,30.32-47.76,50.49,8.65-25.21,12.79-51.66,10.91-78.45-.69-9.87-2.46-19.63-4.09-29.35-.9-1.92-1.18-3.38-1.82-5.46-8.64-28.18-19.95-50.48-44.88-67.69l-7.42-4.62c7.72-.68,15.65-.63,23.44-.48,2.99.05,7.06.98,9.99.96,8.09-.04,18.67-2.32,27.52-2.76-.24,1.66,2.85,1.91,3.11,2.33.77,1.22-2.05,5.17,1.02,6.95,1.16.68,2.43.51,3.55,1,8.98,3.88,17.96,7.83,26.56,12.1,1.57.78,3.34,1.31,4.87,2.18,1.43,1.59,6.71,4,8.86,5.47,9.02,6.18,17.91,13.26,25.71,20.91,17.29,16.96,38.28,45.85,43.82,69.67.21.86.84,1.47-.6,1.29Z"/>
  <path class="st5" d="M384.89,316.33c-.93.58-.99.76-.91-.45,18.68-45.9,8.87-102.25-21.64-140.52-30.42-38.14-65.54-51.5-112.09-60.53-.54-.1-1.3.11-1.82,0-6.22-1.34-14.79-5.66-21.38-7.73-.74-.23-1.5-.41-2.27-.45-7.81-7.66-16.69-14.72-25.71-20.91-2.15-1.47-7.43-3.88-8.86-5.47-1.54-.87-3.31-1.41-4.87-2.18-8.6-4.28-17.59-8.22-26.56-12.1-1.12-.49-2.39-.32-3.55-1-3.07-1.78-.25-5.74-1.01-6.95-.27-.42-3.36-.67-3.12-2.34,10.71-.54,21.11-.4,31.84,0,5.16.2,10.93-.05,15.92.45,5.72.58,12.79,2.25,18.65,3.18,9.85,1.56,18.49,3.14,28.2,5.46,62.98,15.04,119.26,48.72,157.3,101.75,3.61,5.03,7.1,11.97,10.81,16.48.57.69.99,1.38,2.01,1.41.03.3-.03.61,0,.91,0,.02-.02.18,0,.45,3.88,47.66-5.61,90.2-30.93,130.55Z"/>
  <path class="st6" d="M381.7,320.87c-.4,2.65-7.78,12.27-9.83,14.96-14.91,19.64-32.31,35.33-52.95,48.72-9.07,5.88-18.09,10.72-28.2,15.01-3.93,1.66-7.78,3.59-11.83,5-8.78,3.07-17.89,4.86-26.84,7.28-.42.11-1.08-.18-1.36.45-.3.01-.61-.02-.91,0-5.25.43-10.45,1.72-15.7,2.27-29.36,3.07-58.95.16-87.1-8.18-15.01-4.45-30.58-10.73-44.12-18.65-13.13-7.67-30.16-20.84-40.94-31.39-5.04-4.93-10.01-11.39-14.56-16.83-.05-.05-.59.08-.76-.14-3.97-4.79-7.56-9.95-11.05-15.11,3.42,2.12,6.7,4.52,9.97,6.86.66.48,1.11,1.36,1.4,1.56,2.69,1.88,6.27,4.19,9.1,5.91,22.05,13.45,47.87,22.35,73.69,24.11,3.53-.52,7.09.15,10.71.02,48.41-1.63,92.95-26.21,118.01-67.8-2.15,19.22-8.68,38.12-18.65,54.58-4.59,9.63-11.9,19.22-19.09,27.08-3.67,4-8.07,8.3-12.29,11.59-3.04,3.49-6.6,5.4-10.46,7.73-.5.3-1.53,1.46-2.27,1.82,4.32-1.05,9-1.53,13.48-2.67,31.34-7.94,59-25.53,81.13-48.73,17.98-18.85,30.6-40.16,38.66-65.05,5.12-27.59,8.8-45.03.91-73.23-.25-2.39,2.67,1,3.64,1.82,12.28,10.43,22.09,22.33,30.02,36.39-1.06.84-.43,2.38.91,2.27.34.63.59,1.21.91,1.82l.45.45c.62,1.22.91,2.22,1.36,3.18.74,1.56,2,3.28,2.73,5,6.38,15.14,10.92,33.11,11.37,49.58.07,2.49-.43,5.52.45,7.73,0,.45.03.91,0,1.36-.06,1.02.14,2.23,0,3.18Z"/>
  <path class="st1" d="M383.98,315.87c-.08,1.21-.02,1.04.91.45-.96,1.53-1.5,3.6-3.18,4.55.14-.95-.06-2.16,0-3.18l.46.91h.44c-.29-1.19,1.22-2.37,1.37-2.73Z"/>
  <path class="st6" d="M415.82,185.78c-.02-.27,0-.43,0-.45v.45Z"/>
  <path class="st2" d="M383.98,315.87c-.15.36-1.66,1.53-1.37,2.72h-.45l-.46-.91c.03-.45,0-.91,0-1.36,0-.1.65-.66.48-1.1l-.93-6.63c-.45-16.47-4.99-34.44-11.37-49.58-.73-1.72-1.99-3.44-2.73-5-.45-.96-.75-1.96-1.36-3.18-.1-.18-.38-.31-.45-.45-.32-.61-.57-1.19-.91-1.82-.31-.58-.47-1.5-.91-2.27-7.93-14.06-17.74-25.96-30.02-36.39-.97-.82-3.89-4.21-3.64-1.82-.15-.53-.65-1.42-.91-2.27-4.75-15.52-12.63-30.89-22.74-43.67-14.51-18.34-35.1-36.33-56.43-46.16-.66-.31-1.61.1-1.33-1.15.52.11,1.28-.1,1.82,0,46.55,9.03,81.67,22.39,112.09,60.53,30.51,38.26,40.32,94.62,21.64,140.52Z"/>
  <path class="st2" d="M247.29,114.82c.3.15.3.3,0,.45v-.45Z"/>
  <path class="st4" d="M252.07,411.85c-.22.6-.87.43-1.36.45.28-.63.94-.34,1.36-.45Z"/>
  <path class="st1" d="M381.7,316.33c-.89-2.21-.39-5.24-.45-7.73l.93,6.63c.17.44-.48,1-.48,1.1Z"/>
  <path class="st6" d="M364.42,248.55c-1.34.1-1.97-1.44-.91-2.27.44.78.6,1.7.91,2.27Z"/>
  <path class="st6" d="M365.78,250.83l-.45-.45c.07.14.36.27.45.45Z"/>
</svg>