<?xml version="1.0" encoding="UTF-8"?>
<svg id="Layer_1" data-name="Layer 1" xmlns="http://www.w3.org/2000/svg" viewBox="0 0 1690.39 193.88">
  <defs>
    <style>
      .cls-1 {
        fill: #fff;
      }

      .cls-2 {
        fill: #4ea3d6;
      }

      .cls-3 {
        fill: #f47721;
      }

      .cls-4 {
        fill: #e28533;
      }

      .cls-5 {
        fill: #4da3d7;
      }
    </style>
  </defs>
  <circle class="cls-1" cx="720.21" cy="116.12" r="8.09"/>
  <g>
    <path class="cls-3" d="M815.85,96.94c0-11.35,2.05-22.57,6.16-33.67,4.1-11.09,10.09-21,17.95-29.74,7.86-8.73,17.46-15.81,28.82-21.22,11.35-5.41,24.28-8.12,38.78-8.12,17.12,0,31.92,3.76,44.41,11.27,12.49,7.51,21.79,17.29,27.9,29.34l-27.77,19.13c-2.45-5.24-5.42-9.65-8.91-13.23-3.5-3.58-7.25-6.42-11.27-8.52-4.02-2.1-8.21-3.62-12.58-4.58-4.37-.96-8.65-1.44-12.84-1.44-9.08,0-16.99,1.83-23.71,5.5-6.73,3.67-12.31,8.43-16.77,14.28-4.45,5.85-7.82,12.49-10.09,19.91-2.27,7.43-3.41,14.8-3.41,22.14,0,8.21,1.31,16.11,3.93,23.71,2.62,7.6,6.33,14.28,11.13,20.04,4.8,5.76,10.57,10.39,17.29,13.89,6.72,3.5,14.1,5.24,22.14,5.24,4.19,0,8.56-.52,13.1-1.57,4.54-1.05,8.86-2.71,12.97-4.98,4.1-2.27,7.9-5.2,11.4-8.78,3.49-3.58,6.29-7.9,8.38-12.97l29.61,17.03c-2.97,6.99-7.21,13.15-12.71,18.47-5.5,5.33-11.7,9.82-18.6,13.49-6.9,3.67-14.28,6.46-22.14,8.38-7.86,1.92-15.55,2.88-23.06,2.88-13.28,0-25.41-2.79-36.42-8.38-11-5.59-20.48-12.88-28.43-21.88-7.95-8.99-14.15-19.21-18.6-30.65-4.45-11.44-6.68-23.1-6.68-34.98Z"/>
    <path class="cls-3" d="M1003.18,0h35.11v147.24c0,5.07,1.22,9,3.67,11.79,2.45,2.8,5.94,4.19,10.48,4.19,2.1,0,4.41-.35,6.94-1.05,2.53-.7,4.93-1.57,7.21-2.62l4.71,26.72c-4.71,2.27-10.22,4.02-16.51,5.24-6.29,1.22-11.96,1.83-17.03,1.83-11,0-19.52-2.92-25.54-8.78-6.03-5.85-9.04-14.19-9.04-25.02V0Z"/>
    <path class="cls-3" d="M1123.96,193.88c-6.64,0-12.84-1.09-18.6-3.28-5.76-2.18-10.74-5.24-14.93-9.17-4.19-3.93-7.47-8.51-9.83-13.75s-3.54-11-3.54-17.29,1.44-12.44,4.32-17.95,6.9-10.17,12.05-14.02c5.15-3.84,11.31-6.85,18.47-9.04,7.16-2.18,15.02-3.27,23.58-3.27,6.11,0,12.09.52,17.95,1.57,5.85,1.05,11.04,2.53,15.59,4.45v-7.86c0-9.08-2.58-16.07-7.73-20.96-5.15-4.89-12.8-7.34-22.92-7.34-7.34,0-14.5,1.31-21.48,3.93-6.99,2.62-14.15,6.46-21.48,11.53l-10.74-22.27c17.64-11.7,36.68-17.55,57.12-17.55s35.06,4.85,45.98,14.54c10.91,9.69,16.38,23.71,16.38,42.05v42.71c0,3.67.66,6.29,1.96,7.86,1.31,1.57,3.45,2.45,6.42,2.62v29.87c-5.94,1.22-11.09,1.83-15.46,1.83-6.64,0-11.75-1.49-15.33-4.45-3.58-2.97-5.81-6.9-6.68-11.79l-.79-7.6c-6.12,8.04-13.54,14.15-22.27,18.34-8.74,4.19-18.08,6.29-28.03,6.29ZM1133.92,168.2c5.94,0,11.57-1.05,16.9-3.14,5.33-2.1,9.47-4.89,12.45-8.38,3.84-2.97,5.76-6.29,5.76-9.96v-15.72c-4.19-1.57-8.74-2.84-13.62-3.8-4.89-.96-9.61-1.44-14.15-1.44-9.08,0-16.51,2.06-22.27,6.16-5.76,4.11-8.65,9.3-8.65,15.59,0,5.94,2.27,10.87,6.81,14.8,4.54,3.93,10.13,5.9,16.77,5.9Z"/>
    <path class="cls-3" d="M1288.76,193.88c-11.53,0-22.79-1.83-33.8-5.5-11-3.67-20.44-8.91-28.3-15.72l13.1-22.01c8.38,5.94,16.55,10.44,24.5,13.49,7.95,3.06,15.85,4.58,23.71,4.58,6.98,0,12.49-1.31,16.51-3.93,4.02-2.62,6.03-6.37,6.03-11.27s-2.36-8.47-7.07-10.74c-4.72-2.27-12.4-4.89-23.06-7.86-8.91-2.44-16.51-4.8-22.79-7.07-6.29-2.27-11.36-4.85-15.2-7.73-3.84-2.88-6.64-6.2-8.38-9.96-1.75-3.75-2.62-8.25-2.62-13.49,0-6.98,1.35-13.27,4.06-18.86,2.71-5.59,6.5-10.35,11.4-14.28,4.89-3.93,10.61-6.94,17.16-9.04,6.55-2.1,13.67-3.14,21.35-3.14,10.3,0,19.95,1.49,28.95,4.45,8.99,2.97,17.25,7.77,24.76,14.41l-14.15,21.22c-6.99-5.24-13.75-9.08-20.3-11.53-6.55-2.44-13.06-3.67-19.52-3.67-5.94,0-10.92,1.22-14.93,3.67-4.02,2.45-6.03,6.38-6.03,11.79,0,2.45.48,4.45,1.44,6.03.96,1.57,2.49,2.97,4.58,4.19,2.1,1.22,4.85,2.4,8.25,3.54,3.41,1.14,7.64,2.32,12.71,3.54,9.43,2.45,17.51,4.89,24.24,7.34,6.72,2.45,12.22,5.24,16.51,8.38,4.28,3.14,7.42,6.77,9.43,10.87,2.01,4.11,3.01,9.04,3.01,14.8,0,13.45-4.98,24.06-14.93,31.83-9.96,7.77-23.49,11.66-40.61,11.66Z"/>
    <path class="cls-3" d="M1418.97,193.88c-11.53,0-22.79-1.83-33.8-5.5-11-3.67-20.44-8.91-28.3-15.72l13.1-22.01c8.38,5.94,16.55,10.44,24.5,13.49,7.95,3.06,15.85,4.58,23.71,4.58,6.98,0,12.49-1.31,16.51-3.93,4.02-2.62,6.03-6.37,6.03-11.27s-2.36-8.47-7.07-10.74c-4.72-2.27-12.4-4.89-23.06-7.86-8.91-2.44-16.51-4.8-22.79-7.07-6.29-2.27-11.36-4.85-15.2-7.73-3.84-2.88-6.64-6.2-8.38-9.96-1.75-3.75-2.62-8.25-2.62-13.49,0-6.98,1.35-13.27,4.06-18.86,2.71-5.59,6.5-10.35,11.4-14.28,4.89-3.93,10.61-6.94,17.16-9.04,6.55-2.1,13.67-3.14,21.35-3.14,10.3,0,19.95,1.49,28.95,4.45,8.99,2.97,17.25,7.77,24.76,14.41l-14.15,21.22c-6.99-5.24-13.75-9.08-20.3-11.53-6.55-2.44-13.06-3.67-19.52-3.67-5.94,0-10.92,1.22-14.93,3.67-4.02,2.45-6.03,6.38-6.03,11.79,0,2.45.48,4.45,1.44,6.03.96,1.57,2.49,2.97,4.58,4.19,2.1,1.22,4.85,2.4,8.25,3.54,3.41,1.14,7.64,2.32,12.71,3.54,9.43,2.45,17.51,4.89,24.24,7.34,6.72,2.45,12.22,5.24,16.51,8.38,4.28,3.14,7.42,6.77,9.43,10.87,2.01,4.11,3.01,9.04,3.01,14.8,0,13.45-4.98,24.06-14.93,31.83-9.96,7.77-23.49,11.66-40.61,11.66Z"/>
    <path class="cls-3" d="M1497.3,34.85V0h35.11v34.85h-35.11ZM1497.3,191.26V53.97h35.11v137.29h-35.11Z"/>
    <path class="cls-3" d="M1555.46,122.62c0-9.6,1.66-18.69,4.98-27.25,3.32-8.56,8.12-16.07,14.41-22.53,6.29-6.46,13.89-11.61,22.79-15.46,8.91-3.84,18.95-5.76,30.13-5.76,15.02,0,27.81,3.23,38.38,9.69,10.57,6.46,18.47,14.93,23.71,25.41l-34.32,10.48c-2.97-5.06-6.9-8.95-11.79-11.66-4.89-2.71-10.31-4.06-16.24-4.06-5.07,0-9.78,1.01-14.15,3.01-4.37,2.01-8.17,4.81-11.4,8.38-3.23,3.58-5.76,7.91-7.6,12.97-1.83,5.07-2.75,10.66-2.75,16.77s.96,11.7,2.88,16.77c1.92,5.07,4.5,9.43,7.73,13.1,3.23,3.67,7.03,6.51,11.4,8.51,4.36,2.01,8.99,3.01,13.89,3.01,6.29,0,12.09-1.57,17.42-4.72,5.33-3.14,9.04-6.98,11.14-11.53l34.32,10.48c-4.72,10.48-12.49,19.04-23.32,25.68-10.83,6.64-23.84,9.96-39.04,9.96-11.18,0-21.22-1.92-30.13-5.76-8.91-3.84-16.51-9.04-22.79-15.59-6.29-6.55-11.14-14.15-14.54-22.79-3.41-8.65-5.11-17.69-5.11-27.12Z"/>
  </g>
  <g>
    <path class="cls-2" d="M0,191.08V.27h36.16v90.69L114.23,0h39.82l-71.26,84.77,75.72,106.3h-40.61l-57.9-82.62-23.84,25.57v57.05H0Z"/>
    <path class="cls-2" d="M209.34,193.77c-6.64,0-12.84-1.12-18.6-3.36-5.76-2.24-10.74-5.38-14.93-9.42-4.19-4.04-7.47-8.75-9.83-14.13-2.36-5.38-3.54-11.3-3.54-17.76s1.44-12.78,4.32-18.43,6.9-10.45,12.05-14.4c5.15-3.94,11.31-7.04,18.47-9.28,7.16-2.24,15.02-3.36,23.58-3.36,6.11,0,12.09.54,17.95,1.61,5.85,1.08,11.04,2.6,15.59,4.58v-8.07c0-9.33-2.58-16.51-7.73-21.53-5.15-5.02-12.8-7.54-22.92-7.54-7.34,0-14.5,1.35-21.48,4.04-6.99,2.69-14.15,6.64-21.48,11.84l-10.74-22.88c17.64-12.02,36.68-18.03,57.12-18.03s35.06,4.98,45.98,14.94c10.91,9.96,16.38,24.36,16.38,43.19v43.87c0,3.77.65,6.46,1.96,8.07,1.31,1.61,3.45,2.51,6.42,2.69v30.68c-5.94,1.25-11.09,1.88-15.46,1.88-6.64,0-11.75-1.53-15.33-4.58-3.58-3.05-5.81-7.08-6.68-12.11l-.79-7.8c-6.12,8.25-13.54,14.53-22.27,18.84-8.74,4.31-18.08,6.46-28.03,6.46ZM219.29,167.39c5.94,0,11.57-1.08,16.9-3.23,5.33-2.15,9.47-5.02,12.45-8.61,3.84-3.05,5.76-6.46,5.76-10.23v-16.15c-4.19-1.61-8.73-2.91-13.62-3.9-4.89-.98-9.61-1.48-14.15-1.48-9.08,0-16.51,2.11-22.27,6.32-5.76,4.22-8.65,9.55-8.65,16.01,0,6.1,2.27,11.17,6.81,15.21,4.54,4.04,10.13,6.06,16.77,6.06Z"/>
    <path class="cls-2" d="M313.08,169.01l76.5-93.65h-73.36v-25.3h110.3v22.07l-75.98,93.65h77.29v25.3h-114.76v-22.07Z"/>
    <path class="cls-2" d="M511.16,193.77c-11.18,0-21.22-1.98-30.13-5.92-8.91-3.95-16.46-9.28-22.66-16.01-6.2-6.73-10.96-14.49-14.28-23.28-3.32-8.79-4.98-18.03-4.98-27.72s1.66-19.2,4.98-27.99c3.32-8.79,8.08-16.55,14.28-23.28,6.2-6.73,13.75-12.06,22.66-16.01,8.91-3.94,18.95-5.92,30.13-5.92s21.18,1.98,30,5.92c8.82,3.95,16.33,9.28,22.53,16.01,6.2,6.73,10.96,14.49,14.28,23.28,3.32,8.79,4.98,18.12,4.98,27.99s-1.66,18.93-4.98,27.72c-3.32,8.79-8.04,16.55-14.15,23.28-6.12,6.73-13.62,12.07-22.53,16.01-8.91,3.94-18.95,5.92-30.13,5.92ZM475.26,120.83c0,6.28.92,11.98,2.75,17.09,1.83,5.11,4.36,9.55,7.6,13.32,3.23,3.77,7.03,6.69,11.4,8.75,4.36,2.06,9.08,3.09,14.15,3.09s9.78-1.03,14.15-3.09c4.36-2.06,8.16-4.98,11.4-8.75,3.23-3.77,5.76-8.25,7.6-13.46,1.83-5.2,2.75-10.94,2.75-17.22s-.92-11.75-2.75-16.95c-1.83-5.2-4.37-9.69-7.6-13.46-3.23-3.77-7.03-6.68-11.4-8.75-4.37-2.06-9.08-3.09-14.15-3.09s-9.78,1.08-14.15,3.23c-4.37,2.15-8.17,5.11-11.4,8.88-3.23,3.77-5.76,8.25-7.6,13.46-1.83,5.21-2.75,10.86-2.75,16.95Z"/>
  </g>
  <g>
    <circle class="cls-1" cx="721.37" cy="115.97" r="8.09"/>
    <g>
      <path class="cls-5" d="M738.16,106.32c-.95-2.37-1.42-4.91-2.17-7.35-11.96-38.85-52.3-59.55-90.35-48.53-28.93,8.38-52.04,36.36-51.83,67.69.33,47.3,38.04,80.97,83.82,74.78,27.84-3.77,51.99-25.9,59.2-53.65,1.92-7.39.83-11.17,6.12-17.33,3.97-4.63,9.32-7.78,14.28-11.15l-19.07-4.45ZM721.37,124.06c-3.09,0-5.77-1.73-7.13-4.27,0,0,0,0,0,0-.02-.04-.04-.08-.06-.12-.1-.2-.2-.4-.28-.6-.08-.19-.15-.38-.21-.57-.02-.06-.04-.12-.06-.18-.07-.22-.12-.44-.17-.66,0-.04-.02-.09-.02-.13-.04-.23-.08-.46-.1-.69-.01-.1-.01-.21-.02-.32,0-.16-.03-.33-.02-.49,0-.01,0-.03,0-.04,0-1.93.68-3.7,1.81-5.09.01-.02.03-.03.04-.05,0,0,0,0,0,0,1.16-1.45,2.79-2.52,4.71-2.84.43-.07.86-.09,1.28-.09.08,0,.16-.01.25-.01,4.47,0,8.09,3.62,8.09,8.09s-3.62,8.09-8.09,8.09Z"/>
      <path class="cls-5" d="M714.18,119.66c-.11-.2-.2-.4-.28-.6.09.21.18.41.28.6Z"/>
      <path class="cls-5" d="M715.13,110.83s0,0,0,0c0,0,0,0,0,0Z"/>
      <path class="cls-5" d="M713.68,118.48c-.02-.06-.04-.12-.06-.18.02.06.04.12.06.18Z"/>
      <path class="cls-5" d="M713.46,117.64s-.02-.09-.02-.13c0,.04.01.09.02.13Z"/>
      <path class="cls-5" d="M713.33,116.83c-.01-.11-.01-.21-.02-.32,0,.11,0,.21.02.32Z"/>
      <path class="cls-5" d="M713.28,115.97s0,.03,0,.04c.01-1.86.67-3.69,1.81-5.14-1.13,1.39-1.81,3.16-1.81,5.09Z"/>
      <path class="cls-4" d="M645.65,50.44c-28.93,8.38-52.04,36.36-51.83,67.69,28.72,22.61,71.54,23.08,99.9-.46,8.03-6.66,18.51-19.59,29.92-19.59h9.54c.46,0,2.14.76,2.82.89-11.96-38.85-52.3-59.55-90.35-48.53Z"/>
    </g>
  </g>
</svg>